<svg width="549" height="519" viewBox="0 0 549 519" fill="none" xmlns="http://www.w3.org/2000/svg">
<g clip-path="url(#clip0_136_281)">
<path d="M65.8696 510.052C65.8696 510.052 -26.7894 401.766 104.965 366.975C236.72 332.185 271.436 302.4 333.724 212.251C396.011 122.101 664.006 146.212 554.998 514.216L65.8696 510.052Z" fill="#FFFCEF"/>
<path d="M102.416 305.166C188.787 307.251 274.638 259.764 318.77 185.493C327.291 171.151 323.899 150.872 311.175 140.085C298.45 129.298 277.888 129.27 265.136 140.026C244.026 157.827 216.034 164.845 188.876 169.789C161.718 174.734 133.683 178.325 109.123 190.958C84.5627 203.59 63.6711 227.753 64.0555 255.363C64.4399 282.974 92.9759 304.939 102.416 305.166Z" fill="white"/>
<path d="M546.185 392.247H445.325V513.245H546.185V392.247Z" fill="#FFFCEF"/>
<path d="M476.56 398.578H451.653V403.191H476.56V398.578Z" fill="#E2EEFC"/>
<path d="M506.696 398.578H481.788V403.191H506.696V398.578Z" fill="#E2EEFC"/>
<path d="M536.216 398.578H511.308V403.191H536.216V398.578Z" fill="#E2EEFC"/>
<path d="M476.868 406.881H451.96V411.493H476.868V406.881Z" fill="#E2EEFC"/>
<path d="M507.003 406.881H482.095V411.493H507.003V406.881Z" fill="#E2EEFC"/>
<path d="M536.523 406.881H511.615V411.493H536.523V406.881Z" fill="#E2EEFC"/>
<path d="M476.868 415.183H451.96V419.796H476.868V415.183Z" fill="#E2EEFC"/>
<path d="M507.003 415.183H482.095V419.796H507.003V415.183Z" fill="#E2EEFC"/>
<path d="M536.523 415.183H511.615V419.796H536.523V415.183Z" fill="#E2EEFC"/>
<path d="M477.176 423.486H452.268V428.098H477.176V423.486Z" fill="#E2EEFC"/>
<path d="M507.31 423.486H482.403V428.098H507.31V423.486Z" fill="#E2EEFC"/>
<path d="M536.83 423.486H511.923V428.098H536.83V423.486Z" fill="#E2EEFC"/>
<path d="M477.483 431.788H452.575V436.401H477.483V431.788Z" fill="#E2EEFC"/>
<path d="M507.618 431.788H482.71V436.401H507.618V431.788Z" fill="#E2EEFC"/>
<path d="M537.138 431.788H512.23V436.401H537.138V431.788Z" fill="#E2EEFC"/>
<path d="M477.483 440.091H452.575V444.703H477.483V440.091Z" fill="#E2EEFC"/>
<path d="M507.618 440.091H482.71V444.703H507.618V440.091Z" fill="#E2EEFC"/>
<path d="M537.138 440.091H512.23V444.703H537.138V440.091Z" fill="#E2EEFC"/>
<path d="M537.138 452.745H452.575V483.495H537.138V452.745Z" fill="#E2EEFC"/>
<path d="M548.445 364.984H517.08V513.245H548.445V364.984Z" fill="#FFFCEF"/>
<path d="M554.705 378.56H545.48V513.245H554.705V378.56Z" fill="#FFFCEF"/>
<path d="M140.564 435.451H91.9795V513.556H140.564V435.451Z" fill="#FFFCEF"/>
<path d="M133.206 443.163H97.0747V450.235H133.206V443.163Z" fill="#E2EEFC"/>
<path d="M133.206 454.977H97.0747V462.05H133.206V454.977Z" fill="#E2EEFC"/>
<path d="M133.225 466.788H97.0933V473.861H133.225V466.788Z" fill="#E2EEFC"/>
<path d="M133.225 478.359H97.0933V485.432H133.225V478.359Z" fill="#E2EEFC"/>
<path d="M175.958 410.543H127.373V513.556H175.958V410.543Z" fill="#FFFCEF"/>
<path d="M279.927 430.838H171.345V513.556H279.927V430.838Z" fill="#FFFCEF"/>
<path d="M91.9794 467.738H64.9194V513.556H91.9794V467.738Z" fill="#FFFCEF"/>
<path d="M190.299 392.05H189.377V430.838H190.299V392.05Z" fill="#FFFCEF"/>
<path d="M200.656 400.98H199.733V430.838H200.656V400.98Z" fill="#FFFCEF"/>
<path d="M182.123 385.86H179.971V430.838H182.123V385.86Z" fill="#FFFCEF"/>
<path d="M106.604 424.255H97.6865V435.451H106.604V424.255Z" fill="#FFFCEF"/>
<path d="M150.438 398.443H131.066V410.54H150.438V398.443Z" fill="#FFFCEF"/>
<path d="M167.382 385.86H159.079V410.543H167.382V385.86Z" fill="#FFFCEF"/>
<path d="M118.849 408.348H111.469V435.451H118.849V408.348Z" fill="#FFFCEF"/>
<path d="M75.528 472.197H68.3018V479.423H75.528V472.197Z" fill="#E2EEFC"/>
<path d="M87.3669 472.197H80.1406V479.423H87.3669V472.197Z" fill="#E2EEFC"/>
<path d="M75.528 484.343H68.3018V491.57H75.528V484.343Z" fill="#E2EEFC"/>
<path d="M87.3669 484.343H80.1406V491.57H87.3669V484.343Z" fill="#E2EEFC"/>
<path d="M75.528 496.49H68.3018V503.716H75.528V496.49Z" fill="#E2EEFC"/>
<path d="M87.3669 496.49H80.1406V503.716H87.3669V496.49Z" fill="#E2EEFC"/>
<path d="M135.992 417.09H133.225V510.262H135.992V417.09Z" fill="#E2EEFC"/>
<path d="M148.292 417.09H145.524V510.262H148.292V417.09Z" fill="#E2EEFC"/>
<path d="M159.365 417.09H156.598V510.262H159.365V417.09Z" fill="#E2EEFC"/>
<path d="M171.05 417.09H168.282V510.262H171.05V417.09Z" fill="#E2EEFC"/>
<path d="M265.001 431.672H216.416V509.777H265.001V431.672Z" fill="#FFFCEF"/>
<path d="M257.639 439.387H221.508V446.459H257.639V439.387Z" fill="#E2EEFC"/>
<path d="M257.639 451.198H221.508V458.27H257.639V451.198Z" fill="#E2EEFC"/>
<path d="M257.661 463.012H221.529V470.084H257.661V463.012Z" fill="#E2EEFC"/>
<path d="M257.661 474.583H221.529V481.656H257.661V474.583Z" fill="#E2EEFC"/>
<path d="M300.394 406.764H251.809V509.777H300.394V406.764Z" fill="#FFFCEF"/>
<path d="M404.363 427.059H295.781V509.777H404.363V427.059Z" fill="#FFFCEF"/>
<path d="M216.415 463.959H189.355V509.777H216.415V463.959Z" fill="#FFFCEF"/>
<path d="M314.733 388.274H313.81V427.062H314.733V388.274Z" fill="#FFFCEF"/>
<path d="M325.092 397.201H324.169V427.059H325.092V397.201Z" fill="#FFFCEF"/>
<path d="M306.559 382.081H304.407V427.059H306.559V382.081Z" fill="#FFFCEF"/>
<path d="M231.04 420.479H222.123V431.675H231.04V420.479Z" fill="#FFFCEF"/>
<path d="M274.871 394.667H255.499V406.764H274.871V394.667Z" fill="#FFFCEF"/>
<path d="M291.818 382.081H283.515V406.764H291.818V382.081Z" fill="#FFFCEF"/>
<path d="M243.285 404.572H235.905V431.675H243.285V404.572Z" fill="#FFFCEF"/>
<path d="M199.964 468.418H192.738V475.644H199.964V468.418Z" fill="#E2EEFC"/>
<path d="M211.803 468.418H204.577V475.644H211.803V468.418Z" fill="#E2EEFC"/>
<path d="M199.964 480.564H192.738V487.79H199.964V480.564Z" fill="#E2EEFC"/>
<path d="M211.803 480.564H204.577V487.79H211.803V480.564Z" fill="#E2EEFC"/>
<path d="M199.964 492.71H192.738V499.937H199.964V492.71Z" fill="#E2EEFC"/>
<path d="M211.803 492.71H204.577V499.937H211.803V492.71Z" fill="#E2EEFC"/>
<path d="M260.428 413.311H257.66V506.483H260.428V413.311Z" fill="#E2EEFC"/>
<path d="M272.728 413.311H269.96V506.483H272.728V413.311Z" fill="#E2EEFC"/>
<path d="M283.801 413.311H281.034V506.483H283.801V413.311Z" fill="#E2EEFC"/>
<path d="M295.486 413.311H292.718V506.483H295.486V413.311Z" fill="#E2EEFC"/>
<path d="M389.375 424.857H340.79V502.962H389.375V424.857Z" fill="#FFFCEF"/>
<path d="M382.014 432.573H345.882V439.645H382.014V432.573Z" fill="#E2EEFC"/>
<path d="M382.014 444.384H345.882V451.456H382.014V444.384Z" fill="#E2EEFC"/>
<path d="M382.032 456.195H345.9V463.267H382.032V456.195Z" fill="#E2EEFC"/>
<path d="M382.032 467.769H345.9V474.842H382.032V467.769Z" fill="#E2EEFC"/>
<path d="M424.768 399.95H376.183V502.962H424.768V399.95Z" fill="#FFFCEF"/>
<path d="M528.737 420.245H420.156V502.962H528.737V420.245Z" fill="#FFFCEF"/>
<path d="M340.79 457.145H313.73V502.962H340.79V457.145Z" fill="#FFFCEF"/>
<path d="M439.107 381.457H438.185V420.245H439.107V381.457Z" fill="#FFFCEF"/>
<path d="M449.464 390.387H448.541V420.245H449.464V390.387Z" fill="#FFFCEF"/>
<path d="M430.93 375.267H428.778V420.245H430.93V375.267Z" fill="#FFFCEF"/>
<path d="M355.412 413.661H346.494V424.857H355.412V413.661Z" fill="#FFFCEF"/>
<path d="M399.246 387.853H379.873V399.95H399.246V387.853Z" fill="#FFFCEF"/>
<path d="M416.192 375.267H407.89V399.95H416.192V375.267Z" fill="#FFFCEF"/>
<path d="M367.656 397.757H360.276V424.861H367.656V397.757Z" fill="#FFFCEF"/>
<path d="M324.339 461.604H317.112V468.83H324.339V461.604Z" fill="#E2EEFC"/>
<path d="M336.177 461.604H328.951V468.83H336.177V461.604Z" fill="#E2EEFC"/>
<path d="M324.339 473.75H317.112V480.976H324.339V473.75Z" fill="#E2EEFC"/>
<path d="M336.177 473.75H328.951V480.976H336.177V473.75Z" fill="#E2EEFC"/>
<path d="M324.339 485.896H317.112V493.122H324.339V485.896Z" fill="#E2EEFC"/>
<path d="M336.177 485.896H328.951V493.122H336.177V485.896Z" fill="#E2EEFC"/>
<path d="M384.799 406.497H382.032V499.669H384.799V406.497Z" fill="#E2EEFC"/>
<path d="M397.1 406.497H394.332V499.669H397.1V406.497Z" fill="#E2EEFC"/>
<path d="M408.172 406.497H405.405V499.669H408.172V406.497Z" fill="#E2EEFC"/>
<path d="M419.86 406.497H417.093V499.669H419.86V406.497Z" fill="#E2EEFC"/>
<path d="M445.325 475.592H395.51V513.51H445.325V475.592Z" fill="#FFFCEF"/>
<path d="M492.077 503.94H490.232V505.785H492.077V503.94Z" fill="#FFFCEF"/>
<path d="M121.93 191.359H100.405V519.049H121.93V191.359Z" fill="#EC7F37"/>
<path d="M174.54 220.902H88.6616V247.925H174.54V220.902Z" fill="#FEBE3D"/>
<path d="M47.7915 232.522L88.6613 206.007V259.035L47.7915 232.522Z" fill="#FEBE3D"/>
<path d="M121.93 247.925H100.405V253.152H121.93V247.925Z" fill="#A54545"/>
<path d="M174.54 247.556H88.6616V249.708H174.54V247.556Z" fill="#F8A23A"/>
<path d="M174.54 220.902H88.6616V223.759H174.54V220.902Z" fill="#FCE373"/>
<path d="M419.538 149.771L411.899 147.311C414.974 138.197 428.48 134.866 435.423 141.518C431.779 137.157 434.808 129.239 440.432 128.421C446.056 127.603 451.195 134.341 448.953 139.556C453.304 134.54 462.714 135.709 465.703 141.638C469.291 137.191 477.145 137.333 480.576 141.896C496.716 138.877 513.381 140.505 528.633 146.588L392.33 153.203C402.145 151.416 411.961 149.623 419.538 149.771Z" fill="#E2EEFC"/>
<path d="M572.328 409.424H437.117V475.097H572.328V409.424Z" fill="#FEBE3D"/>
<path d="M470.1 409.424H437.117V475.097H470.1V409.424Z" fill="#F8A23A"/>
<path d="M533.189 347.558H453.608V409.421H533.189V347.558Z" fill="#FEBE3D"/>
<path d="M473.697 347.558H453.608V409.421H473.697V347.558Z" fill="#F8A23A"/>
<path d="M453.402 409.575L473.694 407.73L514.847 409.858L453.402 409.575Z" fill="#EC7F37"/>
<path d="M568.3 415.057H540.677V421.134H568.3V415.057Z" fill="white"/>
<path d="M568.743 424.328H541.12V430.405H568.743V424.328Z" fill="white"/>
<path d="M530.305 351.122H510.988V357.198H530.305V351.122Z" fill="white"/>
<path d="M530.305 359.427H510.988V365.504H530.305V359.427Z" fill="white"/>
<path d="M572.328 409.424H437.117V475.097H572.328V409.424Z" fill="#FEBE3D"/>
<path d="M470.1 409.424H437.117V475.097H470.1V409.424Z" fill="#F8A23A"/>
<path d="M533.189 347.558H453.608V409.421H533.189V347.558Z" fill="#FEBE3D"/>
<path d="M473.697 347.558H453.608V409.421H473.697V347.558Z" fill="#F8A23A"/>
<path d="M453.402 409.575L473.694 407.73L514.847 409.858L453.402 409.575Z" fill="#EC7F37"/>
<path d="M568.3 415.057H540.677V421.134H568.3V415.057Z" fill="white"/>
<path d="M568.743 424.328H541.12V430.405H568.743V424.328Z" fill="white"/>
<path d="M530.305 351.122H510.988V357.198H530.305V351.122Z" fill="white"/>
<path d="M530.305 359.427H510.988V365.504H530.305V359.427Z" fill="white"/>
<path d="M152.019 91.3275L159.488 88.4001C155.859 79.4826 142.157 77.0226 135.647 84.0951C139.008 79.5133 135.488 71.7951 129.823 71.3431C124.159 70.891 119.442 77.9297 122.019 82.9912C117.36 78.2587 108.043 80.0207 105.433 86.1246C101.57 81.9118 93.7475 82.5422 90.6049 87.3177C74.3076 85.3209 57.7784 87.9954 42.9424 95.0298L179.392 93.0464C169.482 91.8625 159.571 90.6879 152.019 91.3275Z" fill="#E2EEFC"/>
<path d="M465.189 272.839C465.189 255.619 478.777 241.677 495.542 241.677C512.307 241.677 525.896 255.628 525.896 272.839C525.896 290.049 496.782 321.54 496.782 321.54C496.782 321.54 465.189 290.049 465.189 272.839Z" fill="#F75C3D"/>
<path d="M495.542 289.321C504.626 289.321 511.991 281.957 511.991 272.872C511.991 263.788 504.626 256.424 495.542 256.424C486.458 256.424 479.094 263.788 479.094 272.872C479.094 281.957 486.458 289.321 495.542 289.321Z" fill="#1A1A35"/>
<path d="M425.537 479.393C425.537 478.251 425.991 477.156 426.798 476.348C427.605 475.541 428.7 475.088 429.842 475.088H569.755C570.896 475.088 571.991 475.541 572.799 476.348C573.606 477.156 574.06 478.251 574.06 479.393C574.06 480.534 573.606 481.629 572.799 482.437C571.991 483.244 570.896 483.698 569.755 483.698H429.842C428.7 483.698 427.605 483.244 426.798 482.437C425.991 481.629 425.537 480.534 425.537 479.393Z" fill="#1A1A35"/>
<path d="M392.327 279.099C392.327 277.958 392.781 276.863 393.588 276.055C394.395 275.248 395.49 274.794 396.632 274.794H421.232C422.374 274.794 423.469 275.248 424.276 276.055C425.084 276.863 425.537 277.958 425.537 279.099C425.537 280.241 425.084 281.336 424.276 282.143C423.469 282.951 422.374 283.404 421.232 283.404H396.632C395.49 283.404 394.395 282.951 393.588 282.143C392.781 281.336 392.327 280.241 392.327 279.099Z" fill="#E44531"/>
<path d="M425.537 487.584C424.395 487.584 423.3 487.131 422.493 486.323C421.685 485.516 421.232 484.421 421.232 483.279V267.414C421.232 266.273 421.685 265.178 422.493 264.37C423.3 263.563 424.395 263.109 425.537 263.109C426.679 263.109 427.774 263.563 428.581 264.37C429.388 265.178 429.842 266.273 429.842 267.414V483.279C429.842 484.421 429.388 485.516 428.581 486.323C427.774 487.131 426.679 487.584 425.537 487.584Z" fill="#1A1A35"/>
<path d="M396.632 267.414C396.632 266.273 397.085 265.178 397.893 264.37C398.7 263.563 399.795 263.109 400.937 263.109H425.537C426.679 263.109 427.774 263.563 428.581 264.37C429.388 265.178 429.842 266.273 429.842 267.414C429.842 268.556 429.388 269.651 428.581 270.458C427.774 271.266 426.679 271.719 425.537 271.719H400.937C399.795 271.719 398.7 271.266 397.893 270.458C397.085 269.651 396.632 268.556 396.632 267.414Z" fill="#F75C3D"/>
<path d="M425.878 521.837C437.596 521.837 447.096 512.337 447.096 500.619C447.096 488.901 437.596 479.402 425.878 479.402C414.16 479.402 404.661 488.901 404.661 500.619C404.661 512.337 414.16 521.837 425.878 521.837Z" fill="#1A1A35"/>
<path d="M439.209 503.456C440.772 496.097 436.073 488.864 428.714 487.301C421.355 485.738 414.122 490.437 412.559 497.796C410.996 505.156 415.695 512.388 423.054 513.951C430.413 515.514 437.646 510.815 439.209 503.456Z" fill="#38385C"/>
<path d="M267.543 509.62L231.074 504.887C231.29 502.955 231.64 501.039 232.122 499.156C234.324 498.563 236.507 497.902 238.672 497.172C238.754 497.971 239.016 498.74 239.438 499.423C240.117 500.438 241.559 501.053 242.599 500.419C242.442 498.928 242.291 497.443 242.134 495.948C242.583 495.785 243.023 495.616 243.472 495.441C243.472 495.672 243.472 495.902 243.472 496.13C243.435 496.975 243.364 497.836 243.589 498.654C243.813 499.472 244.41 500.244 245.243 500.41C246.077 500.576 247.039 499.866 246.919 499.029C246.7 497.465 246.478 495.899 246.255 494.331C246.719 494.14 247.177 493.943 247.633 493.747C247.891 495.657 248.147 497.57 248.401 499.485C249.358 500.1 250.698 499.226 251 498.132C251.162 497.392 251.122 496.623 250.883 495.905C250.784 495.533 250.658 495.164 250.542 494.804C250.542 494.752 250.505 494.697 250.489 494.644C250.259 494 250.122 493.326 250.083 492.643C250.483 492.461 250.88 492.274 251.273 492.083C251.347 492.191 251.427 492.295 251.507 492.391C253.317 494.775 255.862 496.496 258.748 497.289C261.635 498.081 264.702 497.901 267.476 496.775C267.848 496.622 268.217 496.468 268.57 496.271C268.244 500.61 267.925 504.915 267.543 509.62Z" fill="#F75C3D"/>
<path d="M267.307 512.4C255.163 510.57 243.014 508.737 230.791 507.141C230.88 506.388 230.976 505.631 231.074 504.887C243.232 506.468 255.389 508.045 267.543 509.62C267.463 510.53 267.387 511.456 267.307 512.4Z" fill="black"/>
<path d="M248.389 499.482C248.135 497.569 247.879 495.656 247.621 493.744C248.439 493.387 249.257 493.018 250.081 492.64C250.119 493.323 250.256 493.997 250.487 494.641C250.502 494.694 250.523 494.749 250.539 494.801C250.656 495.161 250.782 495.53 250.88 495.902C251.119 496.62 251.159 497.389 250.997 498.129C250.686 499.226 249.346 500.103 248.389 499.482ZM245.231 500.407C244.398 500.244 243.805 499.466 243.577 498.651C243.349 497.836 243.423 496.972 243.46 496.127C243.46 495.899 243.46 495.669 243.46 495.438C244.383 495.084 245.305 494.709 246.228 494.325C246.453 495.891 246.675 497.457 246.892 499.023C247.027 499.863 246.062 500.567 245.231 500.407ZM242.599 500.419C241.56 501.056 240.118 500.438 239.438 499.423C239.015 498.741 238.753 497.971 238.672 497.172C239.833 496.785 240.987 496.375 242.135 495.942C242.289 497.443 242.442 498.928 242.599 500.419Z" fill="white"/>
<path d="M267.461 496.779C264.687 497.904 261.62 498.084 258.733 497.292C255.847 496.499 253.302 494.778 251.492 492.394C252.963 488.798 253.745 484.959 253.795 481.074C259.592 482.664 265.385 484.248 270.969 485.736C269.803 489.416 268.633 493.097 267.461 496.779Z" fill="#FBB8A5"/>
<path d="M348.828 488.467C338.023 494.252 327.219 500.042 316.418 505.838C315.468 504.14 314.639 502.378 313.936 500.564C315.371 498.799 316.763 496.992 318.112 495.143C318.643 495.745 319.305 496.22 320.046 496.53C321.19 496.96 322.721 496.622 323.198 495.502L320.218 492.135C320.489 491.742 320.747 491.348 321.012 490.945C321.15 491.13 321.276 491.32 321.402 491.511C321.863 492.221 322.306 492.963 322.964 493.498C323.622 494.033 324.557 494.312 325.329 493.962C326.101 493.611 326.473 492.477 325.889 491.865C324.8 490.721 323.708 489.576 322.614 488.43C322.881 488.006 323.136 487.578 323.395 487.154C324.714 488.556 326.039 489.967 327.355 491.376C328.493 491.324 329.074 489.838 328.681 488.765C328.382 488.07 327.902 487.468 327.291 487.022C326.983 486.779 326.676 486.548 326.368 486.324L326.233 486.225C325.67 485.835 325.167 485.366 324.739 484.832C324.957 484.451 325.172 484.07 325.381 483.685C325.504 483.728 325.63 483.768 325.756 483.805C328.615 484.693 331.687 484.614 334.496 483.58C337.306 482.546 339.696 480.615 341.297 478.086C341.51 477.744 341.713 477.397 341.897 477.04C344.151 480.721 346.408 484.423 348.828 488.467Z" fill="#F75C3D"/>
<path d="M350.243 490.865C339.299 496.437 328.355 502.009 317.478 507.824C317.112 507.157 316.75 506.486 316.396 505.825L348.816 488.467C349.295 489.254 349.769 490.05 350.243 490.865Z" fill="black"/>
<path d="M327.349 491.357L323.389 487.135C323.847 486.367 324.311 485.598 324.736 484.814C325.165 485.347 325.668 485.816 326.23 486.207L326.365 486.305C326.673 486.53 326.98 486.757 327.288 487.003C327.9 487.448 328.38 488.051 328.678 488.747C329.071 489.814 328.49 491.305 327.349 491.357ZM325.335 493.946C324.563 494.297 323.629 494.011 322.971 493.482C322.313 492.953 321.87 492.206 321.408 491.496C321.282 491.308 321.156 491.114 321.018 490.93C321.565 490.103 322.1 489.26 322.623 488.415C323.718 489.558 324.809 490.703 325.898 491.849C326.464 492.461 326.089 493.596 325.335 493.946ZM323.183 495.487C322.706 496.609 321.175 496.945 320.031 496.514C319.289 496.206 318.627 495.731 318.097 495.127C318.812 494.137 319.514 493.134 320.203 492.117C321.199 493.244 322.193 494.368 323.183 495.487Z" fill="white"/>
<path d="M341.294 478.067C339.693 480.596 337.302 482.527 334.493 483.561C331.684 484.595 328.612 484.674 325.753 483.787C324.86 480.007 323.263 476.428 321.045 473.239C326.685 471.161 332.321 469.079 337.727 467.043C338.918 470.715 340.107 474.39 341.294 478.067Z" fill="#FBB8A5"/>
<path d="M313.927 479.389L267.325 278.294L315.944 293.49L345.415 467.139L313.927 479.389Z" fill="#1A1A35"/>
<path d="M248.343 484.817L260.576 289.536L311.482 301.098L277.836 487.434L248.343 484.817Z" fill="#38385C"/>
<path d="M261.154 188.497C263.226 188.378 263.103 189.112 264.622 190.53C265.207 191.128 265.673 191.833 265.994 192.606C267.695 196.251 268.376 200.289 267.965 204.291C271.849 200.817 276.335 198.084 281.203 196.225C279.029 193.208 277.857 189.598 276.882 186.01C276.596 184.776 276.184 183.574 275.652 182.424C275.41 181.89 275.043 181.422 274.582 181.059C273.78 180.487 272.703 180.484 271.729 180.635C269.099 181.041 266.71 182.372 264.453 183.78C262.729 184.857 261.043 185.991 259.395 187.184C258.82 187.6 261.203 188.107 261.148 188.82" fill="#FBB089"/>
<path d="M268.214 236.335C268.214 236.335 240.465 252.476 233.565 247.651C233.565 247.651 212.753 243.617 201.136 190.976C200.793 189.436 200.46 187.853 200.136 186.225L208.131 182.922C208.131 182.922 209.53 184.601 211.757 187.461C217.821 195.241 230.007 211.754 236.741 226.87C236.741 226.87 257.922 206.92 271.163 202.23L268.214 236.335Z" fill="#E44531"/>
<path d="M267.165 205.856C266.018 205.893 265.357 207.572 266.169 208.38C264.567 208.756 263.924 210.647 263.58 212.258C258.497 236 259.136 260.535 257.903 284.782C257.722 288.337 257.497 291.91 256.673 295.375C261.963 295.691 267.271 295.456 272.513 294.674C276.59 294.059 280.668 293.137 284.782 293.361C288.524 293.576 292.137 294.754 295.824 295.428C301.493 296.46 307.314 296.302 312.918 294.963C314.237 290.56 314.034 285.852 313.561 281.279C312.214 268.235 308.804 255.505 305.406 242.842C303.961 237.451 302.5 232.027 300.132 226.975C298.693 223.9 296.928 220.997 295.169 218.097L283.577 198.986C283.241 198.436 282.857 197.842 282.242 197.643C281.363 197.357 280.48 197.996 279.76 198.565C275.555 201.969 270.842 204.694 265.794 206.64" fill="#F75C3D"/>
<path d="M282.528 192.397C275.998 195.848 269.713 199.745 263.718 204.06C264.41 205.093 264.821 206.289 264.911 207.529C265 208.769 264.765 210.011 264.229 211.133C271.2 205.264 278.785 200.164 286.851 195.924C285.379 194.727 283.847 193.606 282.261 192.566" fill="#38385C"/>
<path d="M356.894 246.839H235.653V311.796H356.894V246.839Z" fill="#FEBE3D"/>
<path d="M266.258 246.839H235.653V311.796H266.258V246.839Z" fill="#F8A23A"/>
<path d="M352.5 250.579H323.072V256.956H352.5V250.579Z" fill="white"/>
<path d="M352.5 259.299H323.072V265.677H352.5V259.299Z" fill="white"/>
<path d="M277.174 198.184L283.238 196.031C283.238 196.031 285.286 193.759 300.301 208.356C315.317 222.953 337.42 256.87 337.42 256.87L307.592 307.718L297.835 301.47L311.125 256.267C311.125 256.267 241.283 183.002 291.904 200.671" fill="#E44531"/>
<path d="M297.967 301.119C295.667 301.768 293.856 303.01 291.817 304.219C291.582 304.321 291.378 304.486 291.229 304.695C291.079 304.904 290.989 305.15 290.969 305.406C290.34 308.086 289.386 310.679 288.127 313.127C290.708 313.835 293.362 314.24 296.036 314.333C296.383 314.366 296.733 314.331 297.066 314.228C297.479 314.036 297.829 313.731 298.075 313.349C298.705 312.511 299.232 311.601 299.643 310.636C302.669 310.021 305.47 309.877 307.592 307.715C304.895 306.436 302.506 303.881 299.966 302.325C299.268 301.897 298.638 301.402 297.924 301.095" fill="#FBB089"/>
<path d="M284.099 157.717C284.407 157.652 284.683 157.578 284.966 157.498L285.145 157.446L284.969 157.498C284.68 157.575 284.391 157.652 284.099 157.717Z" fill="#E1C2B0"/>
<path d="M250.92 173.061C250.877 173.716 250.889 174.373 250.957 175.026C251.249 178.212 252.242 179.768 253.521 180.367C253.612 180.411 253.706 180.449 253.801 180.481C254.55 180.72 255.35 180.742 256.111 180.546C255.803 178.528 255.557 176.591 255.366 174.906C255.225 173.704 255.117 172.63 255.059 171.739C254.628 172.046 253.094 170.297 253.094 170.297C251.759 170.576 251.101 171.742 250.92 173.061ZM271.812 194.205C271.812 194.205 271.812 194.205 271.812 194.174C271.812 194.143 271.79 194.202 271.812 194.205ZM265.662 191.656C266.673 191.963 268.238 189.46 269.044 189.654C270.08 189.906 270.868 190.057 271.23 190.121L271.31 190.136V190.183L271.369 190.146H271.436V190.1C271.621 189.986 272.024 189.737 272.559 189.38C272.922 189.143 273.346 188.851 273.81 188.522C274.644 187.929 276.993 188.042 277.958 187.218C278.143 188.756 277.676 189.395 278.666 191.505C278.497 191.711 278.317 191.908 278.128 192.095C277.541 192.691 276.879 193.208 276.16 193.633C275.137 194.232 274.017 194.649 272.851 194.863C271.846 195.051 270.82 195.09 269.804 194.98C268.812 194.872 267.843 194.61 266.932 194.205C266.71 194.106 266.735 193.946 266.523 193.833C266.818 192.397 267.11 196.028 265.68 191.656H265.662ZM282.829 181.348C283.715 181.843 284.727 182.063 285.738 181.982C285.999 181.947 286.255 181.879 286.498 181.779C287.759 181.259 288.847 179.823 289.481 176.859C290.157 173.679 289.499 172.391 288.417 172.019H288.401C288.265 172.149 288.105 172.253 287.931 172.326C287.346 172.91 285.053 173.012 284.677 173.664C284.613 173.987 284.539 174.331 284.459 174.694C284.425 174.854 284.388 175.001 284.351 175.186L284.296 175.438L284.176 175.955C284.176 175.979 284.176 176.004 284.158 176.031C284.084 176.339 284.01 176.668 283.93 176.994C283.906 177.102 283.878 177.215 283.85 177.326V177.366C283.81 177.535 283.764 177.707 283.724 177.88C283.684 178.052 283.66 178.138 283.626 178.27C283.377 179.254 283.115 180.287 282.829 181.348Z" fill="#E88A78"/>
<path d="M259.948 167.043L267.436 165.546C267.216 165.427 266.988 165.324 266.753 165.238C265.73 164.881 264.632 164.793 263.565 164.983C262.498 165.174 261.498 165.635 260.662 166.324C260.402 166.541 260.163 166.781 259.948 167.043Z" fill="#FFECE6"/>
<path d="M255.031 171.739C255.102 172.63 255.213 173.707 255.339 174.909C255.529 176.594 255.788 178.531 256.083 180.549C256.215 181.471 256.357 182.394 256.504 183.316C256.812 185.26 258.331 187.105 260.194 188.694C261.382 189.688 262.644 190.588 263.97 191.388C264.874 191.941 265.738 192.415 266.47 192.799C267.414 193.294 268.143 193.63 268.478 193.783L268.552 193.82L268.617 193.848L268.681 193.826C268.887 193.759 269.339 193.617 269.945 193.399C270.354 193.254 270.837 193.092 271.366 192.867C272.316 192.492 273.429 192.015 274.567 191.446C275.994 190.749 277.352 189.918 278.623 188.965C280.182 187.763 281.427 186.366 281.87 184.804C282.199 183.642 282.516 182.483 282.814 181.357C283.1 180.296 283.361 179.263 283.601 178.282C283.632 178.15 283.666 178.021 283.699 177.892C283.733 177.763 283.786 177.544 283.826 177.378V177.338C283.85 177.228 283.881 177.114 283.906 177.006C283.985 176.674 284.062 176.354 284.133 176.044C284.141 176.018 284.147 175.993 284.152 175.967C284.193 175.788 284.232 175.616 284.271 175.45L284.327 175.198C284.364 175.029 284.401 174.866 284.434 174.706C284.514 174.343 284.588 173.996 284.653 173.676C284.635 173.708 284.62 173.742 284.61 173.777C284.539 173.295 284.468 172.809 284.394 172.326C283.856 171.404 283.057 170.017 282.134 168.436L281.67 167.587L281.006 166.459L280.501 165.598L279.985 164.725C279.711 164.26 279.434 163.802 279.158 163.332C278.091 164.172 276.976 164.948 275.818 165.656C275.624 165.661 275.43 165.676 275.237 165.702L275.511 165.841C269.939 169.151 263.61 170.975 257.131 171.136C256.824 171.136 256.516 171.136 256.209 171.136C256.147 171.142 255.071 171.782 255.031 171.739Z" fill="#FBB089"/>
<path d="M283.408 142.988C283.343 142.951 283.278 142.911 283.211 142.877C284.775 144.144 286.171 145.606 287.365 147.228C286.462 145.476 285.093 144.009 283.408 142.988ZM275.299 165.739C266.756 167 256.32 168.11 247.55 167.775C247.575 167.818 247.605 167.864 247.633 167.907C247.661 167.95 247.633 167.907 247.633 167.907C248.229 169.008 249.1 171.253 250.139 172.443C250.35 172.701 250.609 172.916 250.902 173.076C250.9 173.071 250.9 173.066 250.902 173.061C251.095 171.742 251.753 170.576 253.054 170.294C253.054 170.294 254.592 172.034 255.022 171.736C255.062 171.779 256.123 171.139 256.178 171.139C256.486 171.139 256.793 171.139 257.101 171.139C263.594 170.981 269.937 169.154 275.52 165.835L275.299 165.739ZM248.599 162.772H246.049H248.602C248.602 162.772 248.595 162.766 248.595 162.763L248.599 162.772ZM249.189 147.317L249.318 147.376C250.418 145.857 251.695 144.474 253.122 143.258C251.549 144.327 250.209 145.705 249.186 147.308L249.189 147.317ZM291.934 162.704C291.679 163.787 291.421 164.857 291.135 165.936C290.966 166.573 290.788 167.2 290.594 167.821C289.954 169.131 289.317 170.441 288.681 171.751L288.487 171.939L288.417 172.006H288.401C288.266 172.138 288.106 172.242 287.931 172.314C287.343 172.898 285.05 173 284.677 173.651C284.659 173.683 284.644 173.717 284.634 173.753L284.422 172.302L284.339 171.742C283.98 169.3 283.621 166.86 283.26 164.42C284.333 164.23 285.329 164.045 286.236 163.876C288.718 163.409 290.517 163.037 291.353 162.858H291.387L291.879 162.754C291.879 162.754 291.879 162.726 291.879 162.711L291.934 162.704Z" fill="#38385C"/>
<path d="M279.151 163.326L279.979 164.719L280.495 165.592C280.664 165.881 280.836 166.167 280.999 166.453L281.67 167.588L282.168 168.439C283.09 170.02 283.89 171.394 284.428 172.329L284.345 171.769C283.871 168.561 283.399 165.357 282.927 162.157C282.826 161.496 282.731 160.835 282.62 160.177C282.42 160.383 282.223 160.589 282.005 160.792C281.101 161.688 280.148 162.534 279.151 163.326Z" fill="#E88A78"/>
<path d="M271.83 145.697C272.064 145.715 272.297 145.74 272.531 145.77C272.728 145.795 272.925 145.823 273.122 145.857C273.254 145.878 273.386 145.9 273.521 145.927L273.936 146.016L274.349 146.115C274.53 146.161 274.714 146.21 274.896 146.265C275.13 146.333 275.363 146.407 275.591 146.487L275.785 146.555C275.938 146.61 276.092 146.662 276.24 146.724C276.326 146.754 276.415 146.791 276.498 146.828L276.685 146.905C276.759 146.933 276.827 146.964 276.898 146.997C277.113 147.093 277.322 147.191 277.531 147.305C277.74 147.419 277.943 147.511 278.146 147.612C278.257 147.671 278.364 147.729 278.472 147.794C278.58 147.858 278.629 147.883 278.703 147.929L278.767 147.969C278.813 147.993 278.857 148.02 278.9 148.049L279.072 148.154C279.769 148.592 280.435 149.079 281.064 149.611L281.166 149.697C281.631 150.101 282.076 150.528 282.497 150.976C282.559 151.041 282.62 151.109 282.679 151.176C282.737 151.244 282.866 151.382 282.955 151.484C283.045 151.585 283.134 151.693 283.217 151.791C283.3 151.89 283.423 152.046 283.524 152.173C283.586 152.249 283.641 152.326 283.697 152.403C283.798 152.535 283.89 152.671 283.986 152.809L284.204 153.132C284.253 153.206 284.302 153.283 284.345 153.356C284.371 153.394 284.395 153.433 284.416 153.473L284.496 153.599C284.591 153.756 284.684 153.907 284.773 154.073C284.862 154.239 284.948 154.38 285.028 154.559C285.108 154.737 285.191 154.885 285.268 155.051C285.345 155.217 285.415 155.383 285.486 155.549C285.523 155.632 285.554 155.718 285.588 155.801C285.615 155.724 285.643 155.647 285.665 155.567C285.686 155.487 285.698 155.463 285.714 155.407C285.714 155.407 285.714 155.407 285.714 155.392C285.723 155.375 285.729 155.356 285.732 155.337C285.732 155.337 285.732 155.337 285.732 155.321C285.751 155.263 285.766 155.205 285.781 155.146C285.821 155.011 285.852 154.875 285.88 154.737C285.88 154.688 285.901 154.639 285.91 154.586C285.92 154.534 285.932 154.485 285.938 154.436C285.944 154.387 285.966 154.264 285.978 154.181C285.979 154.165 285.979 154.15 285.978 154.134V154.067C285.978 153.993 285.997 153.922 286.003 153.852C286.003 153.836 286.003 153.818 286.003 153.802C286.003 153.692 286.024 153.584 286.03 153.473C286.037 153.363 286.03 153.286 286.03 153.193C286.03 153.037 286.03 152.886 286.03 152.723C286.033 152.693 286.033 152.663 286.03 152.634C286.03 152.575 286.03 152.514 286.03 152.452V152.286C286.03 152.166 286.012 152.043 285.997 151.923C285.997 151.923 285.997 151.896 285.997 151.884C285.997 151.761 285.966 151.638 285.947 151.515C285.929 151.392 285.917 151.33 285.898 151.238C285.88 151.146 285.864 151.053 285.843 150.961C285.837 150.92 285.827 150.88 285.815 150.841C285.815 150.786 285.787 150.73 285.775 150.675C285.763 150.62 285.738 150.524 285.714 150.447C285.689 150.371 285.714 150.383 285.689 150.352C285.665 150.321 285.649 150.211 285.628 150.143C285.572 149.965 285.511 149.786 285.443 149.611C285.412 149.531 285.382 149.448 285.348 149.368C285.274 149.19 285.194 149.011 285.108 148.836C285.077 148.775 285.05 148.713 285.016 148.652C284.963 148.547 284.905 148.443 284.85 148.344L284.745 148.163C284.708 148.101 284.674 148.04 284.637 147.981C284.564 147.862 284.487 147.746 284.407 147.631L284.244 147.4C284.161 147.286 284.072 147.176 283.986 147.068C283.899 146.96 283.804 146.853 283.712 146.761C283.62 146.668 283.586 146.619 283.521 146.555C283.457 146.49 283.337 146.37 283.241 146.278L282.934 146.013C282.866 145.958 282.802 145.9 282.734 145.847L282.454 145.632L282.26 145.494C282.162 145.426 282.064 145.358 281.953 145.297L281.645 145.112C281.575 145.072 281.507 145.032 281.433 144.996C281.359 144.959 281.295 144.922 281.221 144.888L281.024 144.793L280.748 144.67L280.538 144.583L280.446 144.55L280.348 144.513L280.151 144.442L279.899 144.362C279.696 144.301 279.49 144.245 279.284 144.196L278.992 144.135L278.715 144.085L278.623 144.07H278.577L278.346 144.036C278.251 144.036 278.155 144.012 278.057 144.005H277.928L277.709 143.99C277.593 143.99 277.479 143.99 277.362 143.99H277.288C277.168 143.99 277.045 143.99 276.925 143.99C276.725 143.99 276.532 144.005 276.335 144.024L276.141 144.042C276.009 144.042 275.88 144.073 275.751 144.091L275.363 144.159C275.234 144.184 275.105 144.211 274.979 144.242C274.853 144.273 274.727 144.304 274.601 144.341L274.253 144.448C274.227 144.456 274.201 144.465 274.176 144.476L273.983 144.525L273.869 144.565L273.546 144.697C273.454 144.734 273.368 144.777 273.278 144.82L273.045 144.937C273.023 144.945 273.002 144.957 272.983 144.971L272.762 145.091C272.438 145.271 272.127 145.474 271.83 145.697ZM291.882 162.72C291.882 162.735 291.882 162.747 291.882 162.763L291.39 162.867L291.744 162.763L291.882 162.72Z" fill="#82635A"/>
<path d="M281.581 172.541L274.09 169.7C275.477 169.275 276.966 169.324 278.322 169.838C279.678 170.353 280.825 171.304 281.581 172.541ZM263.168 170.543L256.71 172.544C257.467 171.608 258.485 170.918 259.635 170.562C260.785 170.205 262.014 170.199 263.168 170.543ZM260.862 172.612C261.713 172.345 262.707 173.15 263.113 174.405C263.519 175.659 263.131 176.896 262.279 177.172C261.427 177.449 260.416 176.634 260.025 175.377C259.635 174.119 260.007 172.877 260.862 172.612ZM275.016 172.797C275.908 172.717 276.726 173.719 276.842 175.023C276.959 176.327 276.338 177.461 275.446 177.544C274.555 177.627 273.74 176.622 273.623 175.315C273.506 174.008 274.127 172.877 275.016 172.797Z" fill="#101029"/>
<path d="M266.101 171.828C266.46 173.605 266.821 175.382 267.184 177.157C267.118 176.932 266.999 176.727 266.837 176.558C266.676 176.388 266.476 176.26 266.255 176.184C266.033 176.108 265.797 176.085 265.566 176.119C265.334 176.153 265.114 176.241 264.923 176.377C264.733 176.513 264.578 176.693 264.471 176.901C264.364 177.11 264.309 177.34 264.31 177.574C264.31 177.808 264.367 178.039 264.475 178.247C264.583 178.454 264.739 178.633 264.93 178.768L268.85 181.536" fill="#FB6562"/>
<path d="M265.065 184.193C269.73 185.576 275.191 183.538 277.808 179.435C277.957 181.012 277.592 182.594 276.769 183.946C275.945 185.298 274.707 186.348 273.238 186.938C270.268 188.052 266.627 186.905 265.065 184.193Z" fill="white"/>
<path d="M207.532 183.212C208.159 178.968 208.785 174.726 209.411 170.484C209.583 169.325 208.285 168.332 207.126 168.504C205.967 168.676 205.096 169.734 204.761 170.85C204.426 171.966 204.521 173.172 204.62 174.34C203.39 173.848 202.129 173.35 200.804 173.282C199.478 173.215 198.055 173.655 197.268 174.722C196.593 175.637 196.167 176.711 196.031 177.84C195.895 178.969 196.052 180.113 196.489 181.163C196.926 182.213 197.626 183.132 198.523 183.831C199.42 184.529 200.482 184.985 201.606 185.152C201.668 185.546 201.729 185.939 201.788 186.33C203.467 184.906 205.423 183.844 207.532 183.212Z" fill="#FBB089"/>
<path d="M211.763 187.461L201.136 190.976C200.793 189.436 200.46 187.853 200.136 186.225L208.131 182.923C208.131 182.923 209.537 184.602 211.763 187.461ZM291.934 161.158C291.934 161.684 291.916 162.206 291.882 162.72L291.74 162.763H244.908C244.871 162.234 244.853 161.699 244.853 161.158C244.853 160.524 244.877 159.9 244.927 159.279C245.27 155.007 246.773 150.909 249.274 147.429C251.774 143.948 255.178 141.216 259.117 139.527C263.056 137.838 267.382 137.257 271.627 137.845C275.872 138.434 279.876 140.171 283.207 142.868C286.692 145.688 289.299 149.444 290.723 153.695C290.898 154.214 291.052 154.743 291.19 155.278C291.684 157.199 291.934 159.174 291.934 161.158Z" fill="#F75C3D"/>
<path d="M291.741 162.763L291.387 162.867H291.353C290.517 163.046 288.718 163.418 286.236 163.885C285.314 164.054 284.333 164.239 283.26 164.429C280.923 164.842 278.22 165.29 275.296 165.721C266.753 166.982 256.317 168.092 247.547 167.757C243.177 167.594 239.226 167.068 236.123 166.025C236.08 166.01 236.123 165.995 236.123 165.952C235.917 162.179 244.853 162.766 244.853 162.766H248.614H273.152H291.756L291.741 162.763Z" fill="#E44531"/>
</g>
<defs>
<clipPath id="clip0_136_281">
<rect width="549" height="519" fill="white"/>
</clipPath>
</defs>
</svg>
