<svg width="580" height="368" viewBox="0 0 580 368" fill="none" xmlns="http://www.w3.org/2000/svg">
<g clip-path="url(#clip0_109_126)">
<path d="M124 336C177.682 153.057 350.727 42.9452 547.35 100.216C743.972 157.486 859.848 352.218 806.165 535.161C752.483 718.105 549.571 819.983 352.949 762.712C156.326 705.442 70.3177 518.943 124 336Z" fill="url(#paint0_linear_109_126)"/>
<path d="M212.335 368.581C212.335 368.581 138.727 296.019 242.46 271.773C346.194 247.528 373.425 227.232 422.101 166.018C470.776 104.803 682.244 119.532 598.093 368.578L212.335 368.581Z" fill="#F8EFCB"/>
<path d="M240.109 224.339C308.234 225.248 375.703 192.696 410.14 142.306C416.789 132.576 414.014 118.906 403.926 111.697C393.838 104.489 377.622 104.589 367.619 111.924C351.058 124.062 329.018 128.96 307.624 132.455C286.231 135.95 264.148 138.536 244.842 147.197C225.535 155.858 209.172 172.306 209.611 190.942C210.05 209.577 232.663 224.24 240.109 224.339Z" fill="#F8EFCB"/>
<path d="M590.19 281.015H510.646V362.695H590.19V281.015Z" fill="#FFFCEF"/>
<path d="M535.28 285.291H515.637V288.404H535.28V285.291Z" fill="#F8EFCB"/>
<path d="M559.046 285.291H539.402V288.404H559.046V285.291Z" fill="#F8EFCB"/>
<path d="M582.327 285.291H562.684V288.404H582.327V285.291Z" fill="#F8EFCB"/>
<path d="M535.522 290.896H515.879V294.009H535.522V290.896Z" fill="#F8EFCB"/>
<path d="M559.288 290.896H539.645V294.009H559.288V290.896Z" fill="#F8EFCB"/>
<path d="M582.569 290.896H562.926V294.009H582.569V290.896Z" fill="#F8EFCB"/>
<path d="M535.522 296.5H515.879V299.614H535.522V296.5Z" fill="#F8EFCB"/>
<path d="M559.288 296.5H539.645V299.614H559.288V296.5Z" fill="#F8EFCB"/>
<path d="M582.569 296.5H562.926V299.614H582.569V296.5Z" fill="#F8EFCB"/>
<path d="M535.764 302.105H516.121V305.218H535.764V302.105Z" fill="#F8EFCB"/>
<path d="M559.532 302.105H539.889V305.218H559.532V302.105Z" fill="#F8EFCB"/>
<path d="M582.811 302.105H563.168V305.218H582.811V302.105Z" fill="#F8EFCB"/>
<path d="M536.008 307.709H516.365V310.823H536.008V307.709Z" fill="#F8EFCB"/>
<path d="M559.774 307.709H540.131V310.823H559.774V307.709Z" fill="#F8EFCB"/>
<path d="M583.055 307.709H563.412V310.823H583.055V307.709Z" fill="#F8EFCB"/>
<path d="M536.008 313.314H516.365V316.428H536.008V313.314Z" fill="#F8EFCB"/>
<path d="M559.774 313.314H540.131V316.428H559.774V313.314Z" fill="#F8EFCB"/>
<path d="M583.055 313.314H563.412V316.428H583.055V313.314Z" fill="#F8EFCB"/>
<path d="M583.055 321.856H516.365V342.614H583.055V321.856Z" fill="#F8EFCB"/>
<path d="M591.972 262.613H567.236V362.697H591.972V262.613Z" fill="#FFFCEF"/>
<path d="M270.838 313.064L232.522 313.345L232.908 366.068L271.224 365.788L270.838 313.064Z" fill="#FFFCEF"/>
<path d="M265.073 318.314L236.579 318.523L236.614 323.297L265.108 323.088L265.073 318.314Z" fill="#F8EFCB"/>
<path d="M265.132 326.287L236.638 326.496L236.673 331.27L265.167 331.061L265.132 326.287Z" fill="#F8EFCB"/>
<path d="M265.203 334.26L236.71 334.469L236.745 339.242L265.238 339.034L265.203 334.26Z" fill="#F8EFCB"/>
<path d="M265.26 341.073L236.767 341.281L236.802 346.056L265.295 345.848L265.26 341.073Z" fill="#F8EFCB"/>
<path d="M298.627 296.046L260.312 296.327L260.821 365.864L299.136 365.583L298.627 296.046Z" fill="#FFFCEF"/>
<path d="M380.72 309.146L295.089 309.773L295.498 365.61L381.128 364.983L380.72 309.146Z" fill="#FFFCEF"/>
<path d="M232.682 335.14L211.342 335.296L211.569 366.225L232.908 366.068L232.682 335.14Z" fill="#FFFCEF"/>
<path d="M309.845 282.48L309.118 282.485L309.309 308.668L310.036 308.663L309.845 282.48Z" fill="#FFFCEF"/>
<path d="M318.057 288.448L317.33 288.453L317.477 308.609L318.204 308.603L318.057 288.448Z" fill="#FFFCEF"/>
<path d="M303.367 278.348L301.669 278.361L301.892 308.723L303.59 308.71L303.367 278.348Z" fill="#FFFCEF"/>
<path d="M244.001 304.702L236.968 304.754L237.024 312.312L244.056 312.26L244.001 304.702Z" fill="#FFFCEF"/>
<path d="M278.442 287.027L263.165 287.139L263.224 295.305L278.502 295.194L278.442 287.027Z" fill="#FFFCEF"/>
<path d="M291.741 278.433L285.193 278.481L285.315 295.144L291.863 295.096L291.741 278.433Z" fill="#FFFCEF"/>
<path d="M253.579 293.896L247.759 293.939L247.893 312.234L253.713 312.191L253.579 293.896Z" fill="#FFFCEF"/>
<path d="M219.731 337.244L214.032 337.286L214.067 342.164L219.766 342.122L219.731 337.244Z" fill="#F8EFCB"/>
<path d="M229.066 337.176L223.368 337.217L223.403 342.095L229.101 342.053L229.066 337.176Z" fill="#F8EFCB"/>
<path d="M219.008 343.185H213.309V348.063H219.008V343.185Z" fill="#F8EFCB"/>
<path d="M228.343 343.185H222.645V348.063H228.343V343.185Z" fill="#F8EFCB"/>
<path d="M219.008 351.384H213.309V356.262H219.008V351.384Z" fill="#F8EFCB"/>
<path d="M228.343 351.384H222.645V356.262H228.343V351.384Z" fill="#F8EFCB"/>
<path d="M267.141 300.696L264.959 300.712L265.42 363.607L267.602 363.591L267.141 300.696Z" fill="#F8EFCB"/>
<path d="M276.841 300.625L274.658 300.641L275.119 363.536L277.302 363.52L276.841 300.625Z" fill="#F8EFCB"/>
<path d="M285.574 300.561L283.391 300.577L283.851 363.472L286.034 363.456L285.574 300.561Z" fill="#F8EFCB"/>
<path d="M294.79 300.493L292.607 300.509L293.067 363.405L295.25 363.389L294.79 300.493Z" fill="#F8EFCB"/>
<path d="M511.379 337.401L472.093 337.688L472.28 363.285L511.566 362.997L511.379 337.401Z" fill="#FFFCEF"/>
<path d="M350.576 184.322C341.247 194.457 329.206 202.522 315.471 207.836C316.419 210.433 319.702 212.017 322.879 212.14C326.056 212.262 329.129 211.208 331.964 209.974C334.799 208.741 337.541 207.299 340.602 206.547C343.102 205.913 345.399 204.796 347.314 203.282C349.23 201.768 350.714 199.897 351.651 197.814C353.477 193.65 352.868 188.758 350.576 184.322Z" fill="#E44531"/>
<path d="M366.061 166.974C364.288 168.726 365.28 172.465 367.785 172.565C364.133 172.357 358.15 174.534 354.806 176.548C355.387 176.141 355.816 175.596 356.038 174.982C356.26 174.368 356.266 173.711 356.055 173.094C355.97 172.842 355.843 172.602 355.676 172.382C355.215 171.794 354.529 171.362 353.736 171.159C352.849 170.916 351.888 170.962 351.037 171.288C352.07 170.799 353.056 170.24 353.984 169.615C356.201 168.125 358.075 166.295 359.51 164.218C360.48 163.803 361.523 163.45 362.612 163.387C362.918 163.373 363.224 163.385 363.526 163.425C364.309 163.511 365.032 163.83 365.568 164.326C366.286 165.031 366.72 166.321 366.061 166.974Z" fill="#FBB8A5"/>
<path d="M330.98 360.744L302.219 357.549C302.389 356.245 302.666 354.952 303.046 353.68C304.782 353.28 306.504 352.834 308.211 352.341C308.276 352.88 308.482 353.4 308.815 353.861C309.351 354.546 310.488 354.961 311.308 354.533C311.184 353.526 311.065 352.524 310.942 351.515C311.296 351.405 311.643 351.291 311.997 351.173C311.997 351.328 311.997 351.484 311.997 351.638C311.968 352.208 311.912 352.79 312.089 353.342C312.266 353.894 312.736 354.415 313.394 354.527C314.051 354.639 314.81 354.16 314.715 353.595C314.544 352.538 314.369 351.48 314.191 350.423C314.558 350.294 314.919 350.162 315.278 350.029C315.482 351.319 315.684 352.61 315.884 353.902C316.638 354.317 317.696 353.728 317.933 352.989C318.061 352.49 318.029 351.971 317.841 351.486C317.764 351.235 317.664 350.986 317.572 350.743C317.56 350.708 317.543 350.67 317.531 350.635C317.349 350.2 317.241 349.745 317.211 349.284C317.526 349.161 317.839 349.034 318.149 348.906C318.207 348.978 318.27 349.049 318.333 349.113C319.761 350.723 321.768 351.885 324.044 352.42C326.321 352.955 328.74 352.833 330.927 352.073C331.22 351.97 331.511 351.866 331.79 351.733C331.533 354.654 331.283 357.574 330.98 360.744Z" fill="#F75C3D"/>
<path d="M315.874 353.9C315.672 352.609 315.47 351.318 315.268 350.026C315.913 349.784 316.558 349.537 317.208 349.281C317.238 349.743 317.346 350.198 317.528 350.633C317.528 350.668 317.557 350.705 317.569 350.741C317.662 350.983 317.761 351.232 317.839 351.484C318.027 351.968 318.059 352.488 317.931 352.987C317.686 353.726 316.631 354.317 315.874 353.9ZM313.391 354.525C312.734 354.415 312.266 353.89 312.086 353.339C311.907 352.789 311.965 352.206 311.994 351.635C311.994 351.482 311.994 351.326 311.994 351.17C312.722 350.932 313.449 350.678 314.177 350.419C314.354 351.475 314.529 352.532 314.7 353.591C314.8 354.157 314.038 354.633 313.391 354.525ZM311.308 354.533C310.488 354.963 309.351 354.545 308.815 353.86C308.481 353.4 308.274 352.88 308.211 352.341C309.124 352.079 310.035 351.803 310.942 351.511C311.063 352.521 311.185 353.528 311.308 354.533Z" fill="white"/>
<path d="M330.918 352.075C328.73 352.835 326.311 352.957 324.035 352.422C321.759 351.887 319.752 350.725 318.324 349.115C319.485 346.688 320.101 344.096 320.141 341.474C324.712 342.548 329.281 343.617 333.685 344.621C332.766 347.104 331.844 349.589 330.918 352.075Z" fill="#FBB8A5"/>
<path d="M363.186 163.78C365.066 164.544 365.948 166.719 365.024 168.315C365.592 167.736 364.794 168.471 365.163 169.146C366.133 166.842 369.157 163.956 370.124 161.648C370.661 160.373 370.712 158.985 370.269 157.683C369.827 156.382 368.915 155.233 367.663 154.403C366.411 153.573 364.884 153.104 363.301 153.063C361.718 153.022 360.161 153.411 358.853 154.175C356.258 155.688 349.203 153.407 350.081 155.985C350.35 156.776 354.558 163.091 355.52 163.103C356.483 163.115 360.128 162.225 361.084 162.335C362.039 162.445 363.038 163.089 363.186 163.78Z" fill="#38385C"/>
<path d="M360.717 165.49C360.065 168.364 358.443 171.01 356.054 173.104C355.97 172.852 355.842 172.612 355.676 172.392C355.214 171.805 354.528 171.372 353.736 171.17C352.858 171.401 351.959 171.568 351.049 171.67C351.005 171.564 350.959 171.462 350.915 171.354C350.874 171.255 350.83 171.147 350.789 171.058C351.88 170.607 352.95 170.128 353.985 169.629C356.078 168.63 358.096 167.521 360.029 166.308C360.218 166.19 360.4 166.074 360.579 165.955C360.618 165.787 360.681 165.633 360.717 165.49Z" fill="#F8856C"/>
<path d="M363.547 163.402L363.52 163.429C362.701 164.259 361.604 164.832 360.477 165.314C360.385 165.582 360.198 165.924 360.018 166.294C359.828 166.661 359.69 167.046 359.609 167.442C358.794 169.362 357.271 169.872 355.1 170.694C354.567 170.902 354.13 171.041 353.728 171.159C352.85 171.39 351.951 171.558 351.041 171.66C350.451 171.736 349.748 171.83 348.858 171.961C345.807 167.151 345.315 160.77 348.502 155.857C349.714 153.988 353.352 153.127 356.361 153.681C354.424 154.727 352.31 155.51 350.092 156.002C351.055 156.022 351.999 156.236 352.847 156.627C353.695 157.018 354.424 157.575 354.972 158.253C355.521 158.93 355.875 159.709 356.006 160.526C356.136 161.343 356.04 162.175 355.724 162.954C356.17 162.331 358.369 162.565 359.005 162.011C359.696 161.411 359.177 161.341 359.516 160.647C359.609 159.817 360.923 158.109 362.184 158.213C363.445 158.316 364.476 159.302 364.682 160.38C364.888 161.457 364.369 162.57 363.547 163.402Z" fill="#FBB6A6"/>
<path d="M371.449 160.158C367.651 156.793 362.175 155.294 356.811 155.605H356.801L356.343 155.639C350.489 157.727 343.326 157.119 338.062 154.005C341.152 153.849 344.652 153.554 348.154 153.264C349.183 152.641 350.171 152.018 351.165 151.396C351.528 149.767 352.27 148.219 353.348 146.841C359.622 145.299 366.865 147.236 370.998 151.56C371.788 154.375 371.941 157.293 371.449 160.158Z" fill="#F75C3D"/>
<path d="M356.801 155.607L356.343 155.64C350.489 157.729 343.326 157.12 338.062 154.007C341.152 153.851 344.652 153.556 348.154 153.266C350.832 155.827 353.142 155.734 356.801 155.607Z" fill="#E44531"/>
<path d="M319.628 223.294L325.007 223.254C325.007 223.254 326.103 223.944 323.962 223.96C322.776 223.982 321.591 223.887 320.432 223.679L319.628 223.294Z" fill="#F8856C"/>
<path d="M348.867 162.159C349.27 162.159 349.597 161.45 349.597 160.577C349.597 159.703 349.27 158.995 348.867 158.995C348.464 158.995 348.137 159.703 348.137 160.577C348.137 161.45 348.464 162.159 348.867 162.159Z" fill="#38385C"/>
<path d="M347.84 166.478C349.071 166.422 350.271 166.121 351.342 165.597C352.413 165.073 353.325 164.342 354.007 163.462C354.057 164.114 353.89 164.765 353.525 165.339C353.16 165.913 352.613 166.387 351.946 166.705C350.604 167.321 348.844 167.186 347.84 166.478Z" fill="#FEFEFE"/>
<path d="M348.779 157.845C349.168 157.613 349.621 157.473 350.094 157.441C350.566 157.408 351.04 157.484 351.467 157.66C351.894 157.837 352.258 158.107 352.522 158.444C352.786 158.781 352.941 159.171 352.97 159.576C351.86 158.588 350.373 157.974 348.779 157.845Z" fill="#38385C"/>
<path d="M361.24 159.933C361.322 159.767 361.458 159.624 361.633 159.521C361.807 159.419 362.012 159.362 362.223 159.357C362.434 159.352 362.643 159.398 362.824 159.492C363.005 159.585 363.15 159.721 363.243 159.884C363.415 160.183 363.514 160.51 363.533 160.843C363.552 161.176 363.492 161.51 363.356 161.823C363.22 162.135 363.011 162.421 362.741 162.662C362.471 162.904 362.147 163.095 361.788 163.226C362.248 162.88 362.619 162.455 362.877 161.98C363.004 161.742 363.066 161.482 363.06 161.22C363.055 160.958 362.98 160.701 362.843 160.467C362.69 160.232 362.447 160.05 362.154 159.953C361.861 159.856 361.538 159.849 361.24 159.933Z" fill="#F8856C"/>
<path d="M337.097 185.718L259.514 186.286L259.788 223.74L337.371 223.172L337.097 185.718Z" fill="#FEBE3D"/>
<path d="M337.352 220.624L259.769 221.192L259.788 223.743L337.371 223.175L337.352 220.624Z" fill="#EC7F37"/>
<path d="M337.48 219.918V184.322L341.205 186.049V219.918H337.48Z" fill="#EC7F37"/>
<path d="M331.808 217.595C327.939 217.71 324.242 219.004 321.385 221.245C322.116 221.849 323.314 221.897 324.278 221.594C325.241 221.293 326.039 220.698 326.811 220.123C326.745 220.822 326.466 221.495 326.002 222.075C325.538 222.654 324.906 223.121 324.168 223.426C322.693 224.025 321.139 223.718 319.523 223.309C321.156 224.47 323.309 224.745 325.432 224.843C327.555 224.943 329.672 224.65 331.773 224.364C331.797 222.04 331.811 219.725 331.808 217.595Z" fill="#FBB8A5"/>
<path d="M379.629 234.677C370.819 235.955 361.896 236.563 352.965 236.493C349.377 236.469 345.793 236.333 342.214 236.083C342.657 230.39 343.101 224.697 343.544 219.004C355.23 218.012 365.297 209.051 366.004 199.017C366.444 192.755 371.292 189.174 378.528 187.093C378.532 187.537 378.535 187.979 378.555 188.417C378.867 204.494 379.308 218.746 379.629 234.677Z" fill="#F75C3D"/>
<path d="M391.389 232.556C387.505 233.397 383.585 234.104 379.629 234.677C370.819 235.955 361.896 236.563 352.965 236.493C358.343 219.575 366.803 203.334 378.562 188.426C379.533 187.191 380.527 185.967 381.545 184.752C387.407 200.213 390.72 216.302 391.389 232.556ZM350.235 181.573C345.328 192.866 343.348 204.931 344.431 216.933C358.11 208.925 366.968 195.162 367.539 180.986C367.629 178.791 365.437 176.85 362.931 176.376C360.425 175.903 357.775 176.671 355.668 177.942C353.559 179.214 351.944 180.951 350.235 181.573Z" fill="#F75C3D"/>
<path d="M366.895 172.594C368.915 172.056 379.903 179.054 381.688 183.025C377.735 183.074 368.939 183.045 365.457 184.644C366.936 180.999 364.635 176.548 360.49 175.022C362.796 174.109 365.095 173.194 366.895 172.594Z" fill="#E44531"/>
<path d="M330.615 217.262C337.532 216.489 344.175 214.443 350.086 211.263C353.227 209.565 355.223 206.624 356.336 203.582C357.448 200.542 357.783 197.345 358.386 194.203C358.989 191.063 359.895 187.88 361.959 185.235C364.022 182.589 367.584 181.369 371.193 180.6C375.995 179.573 383.242 183.925 382.32 186.871C375.55 208.536 375.422 208.926 369.173 217.374C368.386 218.438 367.066 219.017 365.704 219.496C343.849 227.177 336.227 225.539 335.433 225.323C334.469 222.984 331.775 219.338 330.615 217.262Z" fill="#E44531"/>
<path d="M328.981 217.675C330.255 220.389 330.979 223.264 332.25 225.983C332.071 226.039 332.439 225.93 332.25 225.983L336.098 225.847L333.176 218.293C333.038 217.957 332.792 217.661 332.467 217.438C332.142 217.216 331.75 217.076 331.336 217.035C330.499 216.962 329.631 217.329 328.981 217.675Z" fill="#F75C3D"/>
<path d="M367.163 170.248L349.377 177.482C349.45 179.104 349.522 180.725 349.593 182.344L368.596 172.739C368.089 171.925 367.582 171.095 367.163 170.248Z" fill="#463E52"/>
<path d="M350.91 171.342C350.952 171.321 350.991 171.307 351.032 171.288C350.993 171.31 350.953 171.329 350.91 171.344C350.828 171.388 350.748 171.423 350.668 171.462C350.746 171.418 350.827 171.378 350.91 171.342Z" fill="#FFA8A8"/>
<path d="M348.687 241.734L305.137 345.578L340.058 348.05L364.486 306.175L380.41 242.671L348.687 241.734Z" fill="#1A1A35"/>
<path d="M376.231 348.405L422.911 165.518C423.291 164.027 424.239 162.685 425.606 161.704C426.973 160.722 428.68 160.156 430.461 160.096L533.262 156.591C534.482 156.547 535.695 156.741 536.812 157.16C537.929 157.578 538.92 158.209 539.708 159.005C540.496 159.801 541.061 160.741 541.36 161.753C541.66 162.764 541.685 163.822 541.435 164.845L540.401 169.129L496.666 350.223C496.293 351.763 495.317 353.149 493.898 354.15C492.48 355.151 490.704 355.707 488.868 355.725L384.157 356.751C382.25 356.769 380.398 356.205 378.933 355.163C377.468 354.12 376.483 352.665 376.156 351.057C375.981 350.178 376.008 349.278 376.231 348.405ZM496.811 159.771L466.298 160.729C465.917 160.743 465.557 160.885 465.297 161.124C465.036 161.363 464.896 161.68 464.905 162.007C464.905 162.023 464.905 162.04 464.905 162.057C464.936 162.374 465.107 162.67 465.384 162.882C465.661 163.095 466.024 163.207 466.396 163.198L496.91 162.24C497.115 162.255 497.323 162.234 497.517 162.176C497.713 162.117 497.891 162.024 498.041 161.903C498.191 161.781 498.309 161.633 498.388 161.469C498.467 161.306 498.503 161.129 498.496 160.953C498.489 160.776 498.438 160.603 498.346 160.444C498.254 160.287 498.125 160.147 497.965 160.035C497.806 159.923 497.62 159.842 497.421 159.796C497.221 159.751 497.012 159.741 496.808 159.771L496.811 159.771ZM390.803 344.993L485.894 344.059C487.561 344.043 489.174 343.538 490.462 342.629C491.75 341.721 492.637 340.462 492.975 339.062L533.626 170.727C533.988 169.225 533.693 167.662 532.797 166.335C531.902 165.01 530.466 164.012 528.766 163.535C527.941 163.303 527.073 163.201 526.206 163.234L432.86 166.408C431.243 166.463 429.691 166.977 428.451 167.868C427.209 168.759 426.349 169.978 426.003 171.332L418.999 198.784L418.957 198.945L383.598 337.424C383.364 338.342 383.375 339.293 383.628 340.206C383.883 341.119 384.374 341.971 385.067 342.699C385.759 343.426 386.634 344.009 387.627 344.407C388.62 344.804 389.706 345.004 390.803 344.993Z" fill="#38385C"/>
<path d="M377.934 362.019C378.084 362.203 378.252 362.377 378.437 362.537C379.235 363.411 380.26 364.114 381.431 364.59C382.602 365.066 383.888 365.302 385.185 365.279L494.065 364.029C497.998 363.983 501.381 361.668 502.188 358.463L547.782 177.262L549.251 171.422C549.371 170.944 549.432 170.457 549.432 169.968C548.887 168.459 546.705 165.943 544.572 163.724C542.231 161.287 539.948 159.207 539.948 159.207L539.926 159.272C540.634 160.053 541.134 160.956 541.392 161.92C541.65 162.883 541.66 163.884 541.422 164.853L540.39 169.137L496.663 350.223C496.291 351.763 495.315 353.149 493.896 354.149C492.477 355.151 490.701 355.707 488.865 355.724L384.154 356.751C382.247 356.768 380.396 356.205 378.93 355.163C377.466 354.12 376.481 352.665 376.153 351.057C376.153 351.057 375.605 359.204 377.934 362.019Z" fill="#1A1A35"/>
<path d="M390.802 344.993L485.893 344.059C487.561 344.043 489.172 343.538 490.461 342.629C491.749 341.721 492.636 340.462 492.974 339.063L533.624 170.727C533.986 169.225 533.692 167.662 532.796 166.335C531.9 165.01 530.465 164.012 528.764 163.535C527.94 163.303 527.072 163.201 526.204 163.234L432.859 166.408C431.241 166.463 429.691 166.977 428.449 167.868C427.208 168.759 426.348 169.978 426.003 171.332L418.999 198.784L418.956 198.945L383.597 337.424C383.363 338.342 383.373 339.293 383.627 340.206C383.882 341.119 384.373 341.971 385.065 342.699C385.758 343.426 386.633 344.009 387.626 344.407C388.62 344.804 389.705 345.004 390.802 344.993Z" fill="#F8EFCB"/>
<g opacity="0.64">
<path d="M486.968 163.288L526.907 198.688L528.801 191.083L497.136 163.014L486.968 163.288Z" fill="white"/>
<path d="M453.676 164.706L520.698 223.243L525.336 204.029L479.314 163.831L453.676 164.706Z" fill="white"/>
<path d="M406.927 246.007L496.54 324.279L502.827 298.241L413.507 220.225L406.927 246.007Z" fill="white"/>
<path d="M401.283 268.127L487.911 343.793C489.174 343.468 490.311 342.857 491.202 342.024C492.092 341.191 492.703 340.168 492.969 339.063L492.985 338.996L403.207 260.58L401.283 268.127Z" fill="white"/>
<path d="M393.926 296.959L448.274 344.43L483.972 344.08L400.505 271.175L393.926 296.959Z" fill="white"/>
<path d="M453.676 164.706L520.698 223.243L525.336 204.029L479.314 163.831L453.676 164.706Z" fill="white"/>
<path d="M486.968 163.288L526.907 198.688L528.801 191.083L497.136 163.014L486.968 163.288Z" fill="white"/>
<path d="M401.283 268.127L487.911 343.793C489.174 343.468 490.311 342.857 491.202 342.024C492.092 341.191 492.703 340.168 492.969 339.063L492.985 338.996L403.207 260.58L401.283 268.127Z" fill="white"/>
<path d="M393.926 296.959L448.274 344.43L483.972 344.08L400.505 271.175L393.926 296.959Z" fill="white"/>
<path d="M406.927 246.007L496.54 324.279L502.827 298.241L413.507 220.225L406.927 246.007Z" fill="white"/>
</g>
<path d="M465.468 160.604C465.495 160.922 465.665 161.218 465.94 161.433C466.216 161.647 466.577 161.763 466.949 161.756L497.469 161.021C497.675 161.038 497.882 161.018 498.078 160.961C498.273 160.904 498.452 160.813 498.603 160.692C498.754 160.571 498.874 160.425 498.953 160.262C499.033 160.098 499.071 159.923 499.065 159.746C499.059 159.569 499.009 159.396 498.919 159.237C498.829 159.078 498.7 158.937 498.541 158.824C498.382 158.711 498.197 158.628 497.998 158.581C497.799 158.534 497.591 158.524 497.387 158.551L466.867 159.286C466.486 159.298 466.125 159.437 465.863 159.675C465.601 159.912 465.458 160.228 465.465 160.554C465.465 160.571 465.465 160.587 465.468 160.604Z" fill="white"/>
<path d="M429.706 284.352C433.282 292.032 436.86 299.712 440.441 307.392C439.025 307.905 437.57 308.331 436.085 308.67C434.83 307.572 433.537 306.505 432.206 305.467C432.725 305.155 433.155 304.747 433.463 304.272C433.901 303.536 433.772 302.484 432.935 302.082C431.969 302.666 431.004 303.248 430.038 303.83C429.752 303.624 429.467 303.419 429.174 303.214C429.332 303.134 429.493 303.063 429.658 303.002C430.255 302.747 430.867 302.501 431.349 302.102C431.831 301.701 432.13 301.093 431.922 300.548C431.715 300.004 430.858 299.67 430.327 300.019C429.333 300.663 428.339 301.312 427.346 301.961C427.037 301.755 426.727 301.55 426.416 301.345L430.075 298.999C430.135 298.231 429.015 297.731 428.146 297.915C427.575 298.063 427.061 298.341 426.658 298.719C426.442 298.902 426.234 299.096 426.031 299.285C426.001 299.312 425.972 299.341 425.943 299.368C425.588 299.716 425.176 300.019 424.72 300.267C424.442 300.093 424.159 299.92 423.88 299.75C423.925 299.671 423.966 299.59 424.006 299.508C424.954 297.656 425.164 295.59 424.602 293.629C424.041 291.667 422.74 289.92 420.901 288.658C420.656 288.49 420.396 288.328 420.133 288.177C423.223 286.916 426.323 285.677 429.706 284.352Z" fill="#F75C3D"/>
<path d="M431.715 283.576C435.113 291.331 438.512 299.095 442.104 306.818C441.55 307.013 440.992 307.208 440.442 307.394C436.865 299.711 433.287 292.031 429.707 284.354C430.365 284.098 431.033 283.839 431.715 283.576Z" fill="black"/>
<path d="M430.071 298.978L426.412 301.324C425.852 300.961 425.284 300.599 424.706 300.246C425.161 299.998 425.573 299.695 425.93 299.347C425.961 299.32 425.989 299.291 426.018 299.264C426.221 299.075 426.428 298.881 426.645 298.698C427.048 298.321 427.562 298.043 428.133 297.894C429.024 297.71 430.132 298.21 430.071 298.978ZM431.921 300.532C432.127 301.077 431.82 301.683 431.348 302.085C430.875 302.487 430.252 302.73 429.656 302.986C429.497 303.057 429.335 303.127 429.173 303.197C428.574 302.767 427.964 302.344 427.343 301.931C428.335 301.283 429.331 300.634 430.324 299.989C430.857 299.655 431.709 299.992 431.921 300.532ZM432.936 302.079C433.773 302.489 433.9 303.525 433.464 304.269C433.155 304.744 432.725 305.153 432.207 305.464C431.495 304.916 430.771 304.368 430.034 303.819L432.936 302.079Z" fill="white"/>
<path d="M420.89 288.635C422.729 289.898 424.031 291.644 424.592 293.606C425.154 295.567 424.944 297.633 423.995 299.485C420.953 299.806 418.008 300.611 415.311 301.862C414.181 297.926 413.05 293.99 411.933 290.21L420.89 288.635Z" fill="#FBB8A5"/>
<path d="M357.97 244.44C357.97 244.44 322.582 295.778 346.714 311.056C370.844 326.333 420.132 305.36 420.132 305.36L411.532 286.887C411.532 286.887 370.411 301.304 375.664 284.036C380.916 266.768 388.404 241.368 388.404 241.368L357.97 244.44Z" fill="#38385C"/>
<path d="M391.448 243.198C387.615 243.914 383.728 244.395 379.817 244.637C367.198 247.066 354.094 246.916 341.569 244.198C341.736 242.066 341.905 239.933 342.073 237.798C342.117 237.227 342.163 236.656 342.208 236.084C345.784 236.334 349.369 236.471 352.96 236.493C361.891 236.563 370.813 235.955 379.623 234.677C383.573 234.104 387.494 233.397 391.384 232.556C391.535 236.101 391.556 239.649 391.448 243.198Z" fill="#E44531"/>
<path d="M346.945 159.292C347.164 160.674 345.49 162.067 343.383 162.269C345.444 163.134 346.858 164.623 347.127 166.213C347.729 164.021 347.828 161.775 346.945 159.292Z" fill="#FBB6A6"/>
<path d="M363.223 163.622C364.172 165.265 364.798 167.031 365.078 168.849L369.46 162.75C367.399 163.055 365.335 163.36 363.223 163.622Z" fill="#38385C"/>
<path d="M348.137 153.303C348.933 150.603 350.893 148.26 353.625 146.746C353.816 148.401 353.586 150.072 352.948 151.643C352.647 152.384 351.646 152.728 350.736 152.832C349.827 152.936 348.864 152.894 348.137 153.303Z" fill="#F75C3D"/>
<path d="M346.991 314.074L331.884 342.208M409.117 352.888L409.052 353.002M367.172 249.624C362.712 255.604 358.213 261.651 355.471 268.342C352.729 275.035 351.857 282.528 354.737 289.168C357.615 295.809 364.768 301.318 373.017 301.733C389.434 302.56 397.36 302.958 412.599 297.632" stroke="#F2F2F2" stroke-linecap="round" stroke-linejoin="round" stroke-dasharray="6 3 6 3 6 3"/>
<path d="M494.837 124.35L488.813 122.689C491.238 116.537 501.889 114.289 507.365 118.779C504.491 115.835 506.88 110.49 511.315 109.938C515.751 109.386 519.803 113.934 518.035 117.454C521.467 114.069 528.888 114.857 531.245 118.859C534.075 115.858 540.268 115.953 542.975 119.034C555.706 116.997 568.85 118.097 580.879 122.206L473.38 126.673C481.118 125.461 488.861 124.248 494.837 124.35ZM310.052 91.5046L315.943 89.5284C313.081 83.5086 302.275 81.848 297.141 86.6223C299.792 83.5294 297.015 78.3191 292.548 78.014C288.081 77.7089 284.361 82.4583 286.393 85.8813C282.719 82.6866 275.371 83.8761 273.312 87.9965C270.266 85.1527 264.097 85.5782 261.618 88.8019C248.765 87.454 235.73 89.2594 224.029 94.008L331.64 92.6691C323.819 91.8741 316.008 91.0811 310.052 91.5046Z" fill="#F8EFCB"/>
<path d="M191.168 137.43C191.168 125.805 201.884 116.394 215.106 116.394C228.328 116.394 239.044 125.811 239.044 137.43C239.044 149.048 216.086 170.306 216.086 170.306C216.086 170.306 191.168 149.048 191.168 137.43Z" fill="#F75C3D"/>
<path d="M215.107 148.556C222.271 148.556 228.078 143.585 228.078 137.453C228.078 131.32 222.271 126.349 215.107 126.349C207.942 126.349 202.135 131.32 202.135 137.453C202.135 143.585 207.942 148.556 215.107 148.556Z" fill="#1A1A35"/>
<path d="M215.604 172.591L273.487 166.286L314.152 113.544L404.082 123.639L429.321 209.193L493.487 222.546L462.863 267.306" stroke="#F75C3D" stroke-width="8" stroke-miterlimit="10"/>
<path d="M460.833 278.337C465.453 278.303 469.176 275.07 469.147 271.114C469.118 267.159 465.348 263.981 460.729 264.015C456.108 264.048 452.385 267.282 452.414 271.237C452.443 275.193 456.213 278.371 460.833 278.337Z" fill="#F75C3D"/>
<path d="M464.221 274.078C466.1 272.448 466.08 269.826 464.179 268.222C462.278 266.619 459.215 266.642 457.337 268.273C455.46 269.903 455.479 272.525 457.38 274.128C459.281 275.733 462.344 275.71 464.221 274.078Z" fill="#F5F9FE"/>
<path d="M176.091 247.117C174.754 243.652 177.524 239.45 181.688 238.636C185.851 237.82 190.461 240.579 190.999 244.199C194.14 239.219 203.899 238.935 207.402 243.724C224.584 242.214 241.933 243.21 258.711 246.669L165.073 248.601C169.673 247.473 174.277 246.337 176.091 247.117Z" fill="#F8EFCB"/>
</g>
<defs>
<linearGradient id="paint0_linear_109_126" x1="-10.15" y1="20.3751" x2="265.456" y2="-335.871" gradientUnits="userSpaceOnUse">
<stop stop-color="#FC9B26"/>
<stop offset="1" stop-color="#FDC554"/>
</linearGradient>
<clipPath id="clip0_109_126">
<rect width="580" height="368" fill="white"/>
</clipPath>
</defs>
</svg>
